<svg width="80" height="80" viewBox="0 0 80 80" fill="none" xmlns="http://www.w3.org/2000/svg">
<path fill-rule="evenodd" clip-rule="evenodd" d="M16.9568 23.5954C16.7914 23.297 16.6262 22.9991 16.4446 22.7361C14.401 19.781 15.0402 15.6881 17.8978 13.4152L20.4247 11.7282C19.6737 9.18514 20.4247 6.12687 22.5312 4.14918C24.7307 2.07711 28.1665 1.59065 30.8986 3.19925L32.9445 1.57175C34.5003 0.333502 36.4434 -0.204519 38.4356 0.0701953C40.4091 0.338034 42.2053 1.40923 43.3599 3.01392C44.7691 4.96848 46.0859 7.08665 47.3535 9.27327L35.5733 15.187L36.693 17.2837C37.297 18.4237 36.6941 19.7324 35.5685 20.1885C34.1829 20.747 32.872 20.2182 32.4124 19.3736L31.3114 17.3272L17.3414 24.2607C17.2083 24.0488 17.0825 23.822 16.9569 23.5954L16.9568 23.5954L16.9568 23.5954ZM64.8022 26.3461C62.9826 19.7605 59.9828 12.5043 56.3555 5.91183L52.1519 8.13673C55.6089 14.4247 58.4642 21.3261 60.1926 27.5753C62.6606 36.4746 63.1529 43.1937 63.2298 50.9348V63.436H68.0071V50.9348C67.9264 43.0026 67.4093 35.7466 64.8022 26.3461ZM11 32.4074C13.4424 37.1114 14.9819 42.2869 15.2968 47.3822V63.4358H20.0741V47.1693C19.7289 41.4123 18.0051 35.573 15.2547 30.2784L11 32.4074ZM39.3432 61.9062V59.5293H24.6929V50.6698L35.0606 50.1107C36.1872 52.4615 38.7718 54.1486 41.6994 54.1875H41.7973C44.8867 54.1875 47.6016 52.2464 48.4851 49.3691L58.4163 48.8206L58.4311 59.5293H44.1205V61.9062C44.1205 63.0644 43.0498 64.0075 41.7318 64.0075C40.4139 64.0075 39.3432 63.0644 39.3432 61.9062ZM41.6615 17.3981C42.045 20.3959 40.2955 23.3458 37.3904 24.5216C34.6449 25.634 31.673 25.1327 29.6762 23.4137L19.6826 28.3515C20.571 30.1615 21.3864 32.0675 22.0812 34.0647L36.5041 30.2718L37.1339 32.5219C37.4184 33.5406 38.7271 34.17 40.0567 33.9366C41.2886 33.7151 42.0917 32.5397 41.7502 31.311L41.1204 29.0448L54.5112 25.4842C53.1559 21.2458 51.5142 17.1927 49.6093 13.4079L41.6615 17.3981ZM55.844 29.9866L46.5885 32.4484C46.3403 35.4201 44.0556 37.9834 40.9223 38.5464C38.053 39.0705 35.2025 37.9627 33.6069 35.898L23.3445 38.5845C23.9507 41.0166 24.3945 43.4831 24.61 45.9835L39.1284 45.1892L39.2358 47.5607C39.2754 48.4625 40.3252 49.4812 41.7644 49.4995C43.2101 49.4699 44.0584 48.4531 44.0015 47.2425L43.8942 44.9282L58.1568 44.1408C57.7936 39.2972 57.024 34.5483 55.844 29.9866ZM41.7317 80C38.6503 80 36.0167 78.0595 35.0066 75.4683H24.7268L24.6924 64.2172H35.0066C36.0165 66.8084 38.6503 68.6955 41.7317 68.6955C44.8131 68.6955 47.4467 66.8084 48.4568 64.2172H58.4525V75.4683H48.4568C47.4468 78.0595 44.8131 80 41.7317 80Z" fill="url(#paint0_linear)"/>
<defs>
<linearGradient id="paint0_linear" x1="25.348" y1="-1.80127" x2="99.0433" y2="94.5405" gradientUnits="userSpaceOnUse">
<stop stop-color="#4BE0C5"/>
<stop offset="1" stop-color="#14C6FF"/>
</linearGradient>
</defs>
</svg>
