<svg width="80" height="80" viewBox="0 0 80 80" fill="none" xmlns="http://www.w3.org/2000/svg">
<path d="M37.7738 49.7676L34.014 59.2905L33.291 67.289C38.025 68.7858 42.2295 64.9254 42.8481 59.7541C43.3802 55.3212 41.1791 51.1831 37.7738 49.7676Z" fill="url(#paint0_linear)"/>
<path d="M79.7447 3.44431C78.9356 0.741909 76.4509 -0.660157 74.1976 0.304709L54.9085 8.60528C42.0432 8.60528 48.4025 8.86271 23.6564 7.25388L5.14531 3.04458C2.77734 2.51653 0.52154 4.362 0.0766948 7.18652C-0.369446 10.0075 1.17634 12.7303 3.53008 13.265L22.325 17.5387C22.514 17.583 22.7049 17.6098 22.8969 17.6236L39.9045 18.7311C38.7637 19.2287 33.3901 19.5846 32.0488 19.7098C30.1102 34.6949 30.8259 29.1542 28.9329 43.8041L24.3978 55.2844C24.2254 55.7213 24.1154 56.1918 24.0715 56.6729L22.3957 75.1972C22.1641 77.7433 23.8202 79.9986 25.9933 79.9986C27.8143 79.9986 29.3818 78.3527 29.5822 76.131L31.1916 58.3355L35.7097 46.8992C39.3128 47.5189 38.2593 47.3362 40.9339 47.8006C44.6144 50.6244 46.2806 55.5013 45.71 60.2489C45.5165 61.8613 45.059 63.3612 44.4125 64.7122L47.2629 76.839C47.8108 79.1755 49.8325 80.4797 51.7231 79.8361C53.6434 79.186 54.7629 76.7911 54.2208 74.4888L45.7465 38.44L48.0749 19.0084H55.6623C56.1622 19.0084 56.6576 18.9037 57.1262 18.704L77.1258 10.0984C79.3803 9.12674 80.5523 6.15021 79.7447 3.44431Z" fill="url(#paint1_linear)"/>
<defs>
<linearGradient id="paint0_linear" x1="35.7163" y1="49.3658" x2="52.7499" y2="66.2384" gradientUnits="userSpaceOnUse">
<stop stop-color="#4BE0C5"/>
<stop offset="1" stop-color="#14C6FF"/>
</linearGradient>
<linearGradient id="paint1_linear" x1="20.1351" y1="-1.80127" x2="84.3097" y2="115.932" gradientUnits="userSpaceOnUse">
<stop stop-color="#4BE0C5"/>
<stop offset="1" stop-color="#14C6FF"/>
</linearGradient>
</defs>
</svg>
