<svg width="80" height="80" viewBox="0 0 80 80" fill="none" xmlns="http://www.w3.org/2000/svg">
<path d="M73.9436 8.25354C71.8039 6.11389 68.335 6.11389 66.1953 8.25354L64.6789 9.77002L63.1631 8.25354C61.0227 6.11389 57.5545 6.11389 55.4149 8.25354C53.2745 10.394 53.2745 13.8621 55.4149 16.0018L56.9306 17.5183L64.6789 25.2665L73.9436 16.0018C76.0825 13.8621 76.0825 10.3932 73.9436 8.25354Z" fill="url(#paint0_linear)"/>
<path d="M77.2955 41.2234C77.2955 41.2234 62.668 29.2552 50.6997 45.2128C50.6997 45.2128 40.0616 35.9039 28.0934 45.2128L26.7641 22.6064C26.7641 22.6064 26.1759 21.7983 25.2643 20.6204L25.9918 20.695C25.9918 20.695 30.7033 20.695 31.4877 18.9343L34.1022 21.3448C35.1355 22.2138 36.6733 22.1034 37.5727 21.0953L44.0381 13.8469C44.821 12.9696 44.8849 11.6639 44.1918 10.7128L36.9845 1.33008L15.7843 11.0118C15.7843 11.0118 14.9983 11.3588 14.7951 11.9682C13.4658 15.9569 2.82764 54.5209 2.82764 57.1802V60.2672C2.82764 60.8417 3.08406 61.3797 3.5368 61.7342C4.11356 62.1862 6.98292 62.9775 8.14634 63.829C13.166 67.4996 20.9759 73.9201 29.4227 75.7972C41.3909 78.4566 56.0184 74.4671 56.0184 74.4671C56.0184 74.4671 65.3265 79.7866 77.2948 78.4566V41.2234" fill="url(#paint1_linear)"/>
<defs>
<linearGradient id="paint0_linear" x1="59.2808" y1="6.22961" x2="72.9033" y2="35.4099" gradientUnits="userSpaceOnUse">
<stop stop-color="#4BE0C5"/>
<stop offset="1" stop-color="#14C6FF"/>
</linearGradient>
<linearGradient id="paint1_linear" x1="21.5703" y1="-0.411303" x2="84.8641" y2="111.394" gradientUnits="userSpaceOnUse">
<stop stop-color="#4BE0C5"/>
<stop offset="1" stop-color="#14C6FF"/>
</linearGradient>
</defs>
</svg>
