<svg width="80" height="80" viewBox="0 0 80 80" fill="none" xmlns="http://www.w3.org/2000/svg">
<path fill-rule="evenodd" clip-rule="evenodd" d="M57.874 48.3691C57.7444 48.5053 57.6131 48.6399 57.4799 48.7731L57.4797 48.7733L53.0437 53.2093V70.3394H55.5544H55.5548C55.6247 70.3394 55.694 70.3424 55.7627 70.3484C56.1243 70.3796 56.4659 70.4917 56.7671 70.6682C57.3249 70.995 57.7443 71.5428 57.8952 72.2082L58.9978 77.0693C59.2431 78.1487 58.7224 79.1907 57.8381 79.6915C57.4922 79.8874 57.0907 80.0005 56.6577 80.0005H56.6574H52.688H17.4007C15.8611 80.0005 14.7199 78.5713 15.0605 77.0698L16.1636 72.208C16.4116 71.1151 17.383 70.3394 18.5038 70.3394H20.6228L20.6216 70.3392V65.4716C20.6216 64.1767 21.6715 63.127 22.9663 63.127H35.9025V63.1264H39.4578V51.6412C39.4578 48.8347 41.1599 46.4257 43.5881 45.3901L47.7405 41.2377C50.4188 38.5594 51.9235 34.9269 51.9235 31.1392V20.8876L46.1158 26.6953L46.1157 26.6953L36.9713 35.838C35.6965 37.1144 33.6297 37.1144 32.3533 35.838L30.7512 34.2359L28.6244 36.3627L34.7672 42.5055C35.2387 42.9769 35.2387 43.7414 34.7672 44.2127C34.5316 44.4483 34.2225 44.5663 33.9136 44.5663C33.6048 44.5663 33.2957 44.4485 33.0601 44.2127L26.9172 38.0698L25.8719 39.1152L29.5667 42.81C30.0381 43.2815 30.0381 44.0459 29.5667 44.5172C29.331 44.753 29.0221 44.8708 28.7131 44.8708C28.4042 44.8708 28.0951 44.753 27.8595 44.5172L24.1647 40.8224L20.832 44.155C20.7504 44.2367 20.6601 44.3042 20.564 44.3576C20.6001 44.5154 20.6192 44.6797 20.6192 44.8485C20.6192 46.0567 19.6398 47.0361 18.4316 47.0361C17.2234 47.0361 16.2439 46.0567 16.2439 44.8485C16.2439 43.6403 17.2234 42.6608 18.4316 42.6608C18.6003 42.6608 18.7646 42.6799 18.9223 42.7161C18.9757 42.6199 19.0432 42.5295 19.1249 42.4478L22.4575 39.1152L18.7627 35.4204C18.2912 34.949 18.2912 34.1845 18.7627 33.7132C19.2341 33.2418 19.9986 33.2418 20.4699 33.7132L24.1647 37.408L25.21 36.3627L19.0674 30.22C18.5959 29.7485 18.5959 28.9841 19.0674 28.5128C19.5388 28.0413 20.3033 28.0413 20.7746 28.5128L26.9172 34.6555L29.044 32.5287L27.4422 30.9269C26.1658 29.6505 26.1658 27.5837 27.4422 26.3088L36.585 17.1644L36.5851 17.1645L48.9504 4.79926L51.7753 1.97432C53.0912 0.658426 54.8159 0.000482003 56.5407 0.000488281C58.2654 0.000481077 59.9901 0.658425 61.306 1.97432C62.6227 3.29101 63.2795 5.01479 63.2795 6.73888C63.2795 8.16054 62.8337 9.5822 61.9403 10.7743C63.284 11.8948 64.139 13.5815 64.139 15.4679V32.6975C64.139 38.539 61.8911 44.1477 57.874 48.3691ZM39.4583 70.3392L39.4591 70.3394H39.458L39.4583 70.3392Z" fill="url(#paint0_linear)"/>
<defs>
<linearGradient id="paint0_linear" x1="27.3677" y1="-1.80079" x2="103.183" y2="83.6332" gradientUnits="userSpaceOnUse">
<stop stop-color="#4BE0C5"/>
<stop offset="1" stop-color="#14C6FF"/>
</linearGradient>
</defs>
</svg>
