<svg width="80" height="80" viewBox="0 0 80 80" fill="none" xmlns="http://www.w3.org/2000/svg">
<path d="M56.5516 50.9079L59.2647 53.114C59.6171 53.4005 59.8932 53.7695 60.0687 54.1884C60.2441 54.6072 60.3135 55.0629 60.2706 55.515L59.7583 60.9116C59.6201 62.3682 60.0661 63.8202 60.9983 64.948C61.9305 66.0758 63.2725 66.7872 64.7292 66.9255L65.9006 54.591C66.0139 53.3974 65.7352 52.1993 65.1068 51.1782C64.4784 50.157 63.5345 49.3683 62.4178 48.9316L56.9423 46.789L56.5516 50.9079Z" fill="url(#paint0_linear)"/>
<path d="M54.4425 45.4776C56.9734 48.2492 60.0987 50.719 60.0987 50.719C61.8435 52.6552 61.3144 55.8616 59.3782 57.6064C58.9178 58.0216 58.3802 58.3419 57.796 58.5492C57.2117 58.7565 56.5924 58.8466 55.9733 58.8144C55.3542 58.7822 54.7476 58.6284 54.188 58.3616C53.6284 58.0948 53.1269 57.7204 52.7122 57.2597L51.9578 56.3303L49.4523 55.6588L49.7027 54.1917L47.9613 51.7197C47.7724 51.4517 47.6852 51.1252 47.7153 50.7987C47.7453 50.4722 47.8907 50.1671 48.1253 49.9381L50.1896 47.9233L48.0934 41.0685L52.5623 38.8864L54.4425 45.4776Z" fill="url(#paint1_linear)"/>
<path d="M55.4184 48.9116L57.3494 49.1983C57.7438 49.2186 58.1179 49.3792 58.4044 49.6511C58.6908 49.923 58.8707 50.2882 58.9116 50.681C58.9524 51.0738 58.8516 51.4683 58.6273 51.7933C58.403 52.1183 58.0699 52.3525 57.6882 52.4536L57.2972 52.5571L57.8368 58.5352C60.0073 57.9095 63.1006 55.9886 63.0239 52.0828C62.9159 46.5847 54.4425 45.4776 54.4425 45.4776L55.4184 48.9116Z" fill="url(#paint2_linear)"/>
<path d="M79.9871 65.6086C79.9304 65.979 79.7416 66.3163 79.4556 66.5583C79.1696 66.8003 78.8057 66.9307 78.4311 66.9253H70.878C70.5348 66.9253 70.204 66.7974 69.9501 66.5667L55.1723 53.1323L48.2758 43.4771L44.1379 44.1668L43.6275 44.2512C43.3564 44.2972 43.0818 44.3202 42.8068 44.3202C41.9581 44.3196 41.1235 44.1022 40.3824 43.6885C39.6413 43.2748 39.0182 42.6785 38.5722 41.9564C38.1263 41.2342 37.8722 40.4101 37.8342 39.5622C37.7962 38.7143 37.9755 37.8707 38.3551 37.1116L38.6206 36.5806L37.4103 34.765L35.862 32.4426L34.4827 25.5461L34.4379 25.5237L31.7241 24.1668L12.2207 53.4219L6.89654 61.4081L11.4707 63.696C11.7924 63.8564 12.0552 64.1144 12.2215 64.4331C12.3878 64.7519 12.4491 65.115 12.3965 65.4707C12.328 65.8813 12.1147 66.2537 11.7953 66.5206C11.4758 66.7874 11.0714 66.931 10.6552 66.9253L0 66.9253V63.111C7.62939e-06 62.8982 0.0492859 62.6882 0.143959 62.4976L5.40688 51.8978L9.65515 43.3443L15.1724 35.0685L21.8396 20.7306C22.8984 18.4545 24.4692 16.4541 26.4293 14.8858C27.3294 14.1656 28.365 13.6337 29.4747 13.3215C30.5844 13.0094 31.7455 12.9233 32.889 13.0686C34.0326 13.2138 35.1353 13.5873 36.1318 14.1669C37.1282 14.7465 37.998 15.5204 38.6896 16.4427L41.3792 20.0289L45.5172 26.9254L46.3223 27.8651L49.8775 32.0116L53.793 36.5806L62.0689 50.3736L73.1033 62.7874L78.7809 63.9219C79.1582 63.9979 79.4926 64.2143 79.7165 64.5274C79.9404 64.8405 80.0371 65.227 79.9871 65.6086Z" fill="url(#paint3_linear)"/>
<path d="M48.0841 40.6083C47.6773 39.9646 46.8257 39.7726 46.182 40.1794C45.5383 40.5861 45.3463 41.4377 45.7531 42.0814L46.3489 43.0243C46.7557 43.668 47.6073 43.8601 48.251 43.4533C48.8947 43.0465 49.0867 42.1949 48.68 41.5512L48.0841 40.6083Z" fill="url(#paint4_linear)"/>
<path d="M44.1379 44.1668L43.6275 44.2512C43.3564 44.2972 43.0818 44.3202 42.8068 44.3202C41.9581 44.3196 41.1235 44.1022 40.3824 43.6885C39.6413 43.2748 39.0182 42.6785 38.5722 41.9564C38.1263 41.2342 37.8722 40.4101 37.8342 39.5622C37.7962 38.7143 37.9755 37.8707 38.3551 37.1116L38.6206 36.5806L37.4103 34.765L46.2068 27.9599L46.3223 27.8651L49.8775 32.0116C42.7741 37.0081 44.1379 44.1668 44.1379 44.1668Z" fill="url(#paint5_linear)"/>
<path d="M41.3792 20.0289L34.4827 25.4133L34.4379 25.5237L31.7241 24.1668L12.2207 53.4219L11.8965 53.3443L5.40688 51.8978L9.65515 43.3443L15.1724 35.0685L21.8396 20.7306C22.8984 18.4545 24.4692 16.4541 26.4293 14.8858C27.3294 14.1656 28.365 13.6337 29.4747 13.3215C30.5844 13.0094 31.7455 12.9233 32.889 13.0686C34.0326 13.2138 35.1353 13.5873 36.1318 14.1669C37.1282 14.7465 37.998 15.5204 38.6896 16.4427L41.3792 20.0289Z" fill="url(#paint6_linear)"/>
<path d="M31.7241 24.1202C31.3969 23.9567 31.1481 23.6698 31.0324 23.3227C30.9167 22.9757 30.9436 22.5969 31.1072 22.2697L31.8694 20.6589C32.033 20.3317 32.3199 20.0829 32.6669 19.9672C33.014 19.8515 33.3928 19.8784 33.72 20.042C34.0472 20.2056 34.296 20.4924 34.4117 20.8395C34.5274 21.1865 34.5004 21.5653 34.3369 21.8925L33.5746 23.5033C33.411 23.8305 33.1242 24.0794 32.7771 24.195C32.4301 24.3107 32.0513 24.2838 31.7241 24.1202Z" fill="url(#paint7_linear)"/>
<defs>
<linearGradient id="paint0_linear" x1="81.8013" y1="26.5724" x2="-10.5337" y2="101.239" gradientUnits="userSpaceOnUse">
<stop stop-color="#4BE0C5"/>
<stop offset="1" stop-color="#14C6FF"/>
</linearGradient>
<linearGradient id="paint1_linear" x1="81.8013" y1="26.5724" x2="-10.5337" y2="101.239" gradientUnits="userSpaceOnUse">
<stop stop-color="#4BE0C5"/>
<stop offset="1" stop-color="#14C6FF"/>
</linearGradient>
<linearGradient id="paint2_linear" x1="81.8013" y1="26.5724" x2="-10.5337" y2="101.239" gradientUnits="userSpaceOnUse">
<stop stop-color="#4BE0C5"/>
<stop offset="1" stop-color="#14C6FF"/>
</linearGradient>
<linearGradient id="paint3_linear" x1="81.8013" y1="26.5724" x2="-10.5337" y2="101.239" gradientUnits="userSpaceOnUse">
<stop stop-color="#4BE0C5"/>
<stop offset="1" stop-color="#14C6FF"/>
</linearGradient>
<linearGradient id="paint4_linear" x1="81.8013" y1="26.5724" x2="-10.5337" y2="101.239" gradientUnits="userSpaceOnUse">
<stop stop-color="#4BE0C5"/>
<stop offset="1" stop-color="#14C6FF"/>
</linearGradient>
<linearGradient id="paint5_linear" x1="81.8013" y1="26.5724" x2="-10.5337" y2="101.239" gradientUnits="userSpaceOnUse">
<stop stop-color="#4BE0C5"/>
<stop offset="1" stop-color="#14C6FF"/>
</linearGradient>
<linearGradient id="paint6_linear" x1="81.8013" y1="26.5724" x2="-10.5337" y2="101.239" gradientUnits="userSpaceOnUse">
<stop stop-color="#4BE0C5"/>
<stop offset="1" stop-color="#14C6FF"/>
</linearGradient>
<linearGradient id="paint7_linear" x1="81.8013" y1="26.5724" x2="-10.5337" y2="101.239" gradientUnits="userSpaceOnUse">
<stop stop-color="#4BE0C5"/>
<stop offset="1" stop-color="#14C6FF"/>
</linearGradient>
</defs>
</svg>
