<svg width="81" height="81" viewBox="0 0 81 81" fill="none" xmlns="http://www.w3.org/2000/svg">
<path fill-rule="evenodd" clip-rule="evenodd" d="M10.0312 0.763672H33.4688C36.0577 0.763672 38.1562 2.86227 38.1562 5.45117C38.1562 8.04008 36.0575 10.1387 33.4688 10.1387H10.0312C7.44234 10.1387 5.34375 8.04008 5.34375 5.45117C5.34375 2.86227 7.44234 0.763672 10.0312 0.763672ZM47.5312 0.763672H70.9688C73.5577 0.763672 75.6562 2.86227 75.6562 5.45117C75.6562 8.04008 73.5577 10.1387 70.9688 10.1387H47.5312C44.9423 10.1387 42.8438 8.04008 42.8438 5.45117C42.8438 2.86227 44.9423 0.763672 47.5312 0.763672ZM66.2812 22.6387H52.2188V14.8262H47.5312V37.9384C47.5312 41.5259 48.5281 45.0351 50.4142 48.0866C52.0403 50.7177 54.2672 52.9082 56.9062 54.4905V76.0762H54.5625C53.2681 76.0762 52.2188 77.1255 52.2188 78.4199C52.2188 79.7143 53.2681 80.7637 54.5625 80.7637H63.9375C65.2319 80.7637 66.2812 79.7143 66.2812 78.4199C66.2812 77.1255 65.2319 76.0762 63.9375 76.0762H61.5938V54.4905C64.2328 52.9082 66.4597 50.7177 68.0858 48.0866C69.9719 45.0351 70.9688 41.5259 70.9688 37.9384V14.8262H66.2812V22.6387ZM66.2812 27.3262V33.5762H52.2188V27.3262H66.2812ZM59.25 50.4337C54.9758 47.8496 52.3333 43.3045 52.2241 38.2637H66.2761C66.1667 43.3045 63.5242 47.8496 59.25 50.4337ZM14.7188 22.6387H28.7812V14.8262H33.4688V37.9384C33.4688 41.5259 32.4719 45.0351 30.5858 48.0866C28.9597 50.7177 26.7328 52.9082 24.0938 54.4905V76.0762H26.4375C27.7319 76.0762 28.7812 77.1255 28.7812 78.4199C28.7812 79.7143 27.7319 80.7637 26.4375 80.7637H17.0625C15.7681 80.7637 14.7188 79.7143 14.7188 78.4199C14.7188 77.1255 15.7681 76.0762 17.0625 76.0762H19.4062V54.4905C16.7672 52.9082 14.5403 50.7177 12.9142 48.0866C11.0281 45.0351 10.0312 41.5259 10.0312 37.9384V14.8262H14.7188V22.6387ZM28.7812 33.5762V27.3262H14.7188V33.5762H28.7812ZM14.7241 38.2637C14.8333 43.3045 17.4758 47.8496 21.75 50.4337C26.0242 47.8496 28.6667 43.3045 28.7761 38.2637H14.7241Z" fill="url(#paint0_linear)"/>
<defs>
<linearGradient id="paint0_linear" x1="40.5" y1="0.763673" x2="83.0593" y2="121.985" gradientUnits="userSpaceOnUse">
<stop stop-color="#4BE0C5"/>
<stop offset="1" stop-color="#14C6FF"/>
</linearGradient>
</defs>
</svg>
