<svg width="80" height="80" viewBox="0 0 80 80" fill="none" xmlns="http://www.w3.org/2000/svg">
<path fill-rule="evenodd" clip-rule="evenodd" d="M35.5318 3.57084C30.8943 3.9358 26.4479 4.28571 22.8572 4.28571C21.9338 4.28571 21.0853 4.28081 20.2888 4.2762H20.2887H20.2887H20.2886H20.2886C14.0243 4.23996 10.9758 4.22232 1.14441e-05 6.75714V0H44.2857C53.6572 0 57.1429 1.75714 57.1429 2.85714C57.1561 2.95671 57.1561 3.05758 57.1429 3.15714C51.4314 2.31957 43.2189 2.96587 35.5318 3.57084ZM36.3133 6.40285C42.5939 5.90237 49.0579 5.38726 54.0857 5.71427C49.9511 7.73758 43.4758 9.20581 38.7826 10.27C36.6165 10.7611 34.8301 11.1662 33.8286 11.5C30.3495 12.7535 26.9482 14.2132 23.6429 15.8714C23.1658 16.1158 22.8657 16.6068 22.8657 17.1428C22.8657 17.6789 23.1658 18.1698 23.6429 18.4143C24.6903 19.0477 25.5487 19.9505 26.1286 21.0286C25.6827 21.966 25.6851 22.4734 25.7039 26.38V26.38V26.3801V26.3801V26.3801V26.3801V26.3801C25.7086 27.3552 25.7143 28.5419 25.7143 30H21.4286C19.0616 30 17.1429 31.9188 17.1429 34.2857C17.1429 36.6526 19.0616 38.5714 21.4286 38.5714H25.7143V45.7143C25.7327 46.712 26.0791 47.6759 26.7 48.4571C24.6681 49.6218 22.3367 50.1587 20 50C13.5571 50 6.08571 63.6428 0 76.6857V18.9857C0.00706646 17.755 0.801372 16.6672 1.97143 16.2857C9.22765 13.6626 16.3212 10.6096 23.2143 7.14284C27.0272 7.14284 31.619 6.77693 36.3133 6.40285ZM16.7714 16.3857C19.0143 15.0571 21.2714 13.8143 23.5 12.7V12.6714C23.9943 12.4656 24.332 12.0005 24.3748 11.4668C24.4176 10.933 24.1583 10.4201 23.7031 10.1381C23.2478 9.85617 22.6731 9.85247 22.2143 10.1286C19.9286 11.2714 17.6143 12.5428 15.3143 13.9C14.2588 14.5268 13.6275 15.6778 13.6661 16.9048C13.7047 18.1318 14.4072 19.2408 15.5 19.8C18.3571 21.2857 20 22.9 20 24.2571C20 24.3286 20 24.3714 19.8857 24.4714C18.4857 25.6143 12.3286 25.2714 7.42857 24.2857C6.91819 24.1836 6.39213 24.3616 6.04853 24.7525C5.70495 25.1435 5.59603 25.6881 5.76282 26.1811C5.92961 26.6742 6.34676 27.0408 6.85714 27.1428C12.0429 28.1571 22.8571 29.5286 22.8571 24.2857C22.8571 21.7143 20.8286 19.3714 16.7714 17.3C16.6085 17.2054 16.5082 17.0312 16.5082 16.8428C16.5082 16.6544 16.6085 16.4803 16.7714 16.3857ZM28.6857 22.3C28.9092 21.7721 29.4267 21.429 30 21.4286C30.7889 21.4286 31.4285 22.0682 31.4285 22.8571V45.7143C31.4267 46.2815 31.0895 46.7939 30.5693 47.0199C30.0491 47.246 29.4444 47.1428 29.0285 46.7571C28.7475 46.4814 28.5838 46.1078 28.5714 45.7143C28.5714 22.8634 28.5714 22.5971 28.662 22.3665L28.6653 22.3583C28.6716 22.3424 28.6784 22.3254 28.6857 22.3ZM20 34.2857C20 35.0747 20.6396 35.7143 21.4286 35.7143H25.7143V32.8572H21.4286C20.6396 32.8572 20 33.4967 20 34.2857ZM58.5714 18.5714C51.1999 15.9 43.5285 16.8286 38.4857 23.1C29.8285 33.8143 36.7 45.4714 40 50H40.1142L58.5714 18.5714ZM74.2857 25.7143C79.2572 25.7143 80 33.7714 80 38.5714C80 43.4377 79.2935 48.41 78.5831 53.4092V53.4093V53.4094L78.583 53.4095C77.8649 58.4632 77.1429 63.5444 77.1429 68.5714C77.2265 72.4048 77.6086 76.2259 78.2857 80H74.1572C73.5103 73.239 73.0121 68.109 72.6334 64.21L72.6331 64.2062C71.4889 52.4245 71.4366 51.8861 71.6716 51.5463C71.6828 51.5301 71.6946 51.5144 71.707 51.4979L71.7072 51.4976C71.723 51.4766 71.7397 51.4544 71.7572 51.4286L73.3286 49.0143C74.0155 47.9848 74.2238 46.7087 73.9 45.5143C72.4751 40.3794 71.6273 37.2721 71.1059 35.3611L71.1059 35.3611C70.3652 32.6462 70.2833 32.3462 70.1417 32.0779C70.1241 32.0445 70.1055 32.0117 70.0847 31.9747C70.0718 31.9518 70.0579 31.9272 70.0429 31.9C69.7471 31.3324 69.3212 30.8429 68.8 30.4714C70.8143 27.4714 72.8572 25.7143 74.2857 25.7143ZM56.7429 27.3143L48.7143 40.9857C49.3345 41.6037 49.9011 42.1633 50.4224 42.6781L50.4224 42.6782C53.3593 45.5787 54.8571 47.0579 56.3857 49.5572L61.5858 30.2714C60 29.4 58.2429 28.3143 56.7429 27.3143ZM70.2091 48.5193C69.1779 50.0381 68.754 50.6626 68.6714 51.8429C68.6638 51.8832 68.6561 51.9086 68.6496 51.9343C68.5711 52.2463 68.6727 52.6036 71.2857 80H66.7571C58.6942 54.6496 58.6052 54.3102 58.4579 53.9983C58.426 53.9305 58.3912 53.8641 58.2714 53.5429L64.1857 31.6C64.9751 31.9637 65.7862 32.2786 66.6143 32.5429C67.1264 32.6608 67.5324 33.0504 67.6714 33.5572L71.1428 46.2572C71.2494 46.6582 71.1765 47.0857 70.9428 47.4286C70.6697 47.8407 70.4259 48.1998 70.2091 48.5193Z" fill="url(#paint0_linear)"/>
<defs>
<linearGradient id="paint0_linear" x1="20.1351" y1="-1.80127" x2="84.3097" y2="115.932" gradientUnits="userSpaceOnUse">
<stop stop-color="#4BE0C5"/>
<stop offset="1" stop-color="#14C6FF"/>
</linearGradient>
</defs>
</svg>
