<svg width="80" height="80" viewBox="0 0 80 80" fill="none" xmlns="http://www.w3.org/2000/svg">
<path fill-rule="evenodd" clip-rule="evenodd" d="M69.779 7.74193C69.779 12.0177 66.4032 15.4839 62.2389 15.4839C58.0747 15.4839 54.6989 12.0177 54.6989 7.74193C54.6989 3.46618 58.0747 0 62.2389 0C66.4032 0 69.779 3.46618 69.779 7.74193ZM34.8079 5.38324C36.5016 3.6444 39.1523 3.37463 41.1503 4.73808L50.438 11.3402C49.3785 11.8514 48.4097 12.506 47.5883 13.3493L42.6779 18.3912L39.0027 15.673L28.0927 26.875C26.1291 28.8912 22.948 28.8914 20.9844 26.8752C19.0208 24.859 19.0208 21.5929 20.9844 19.5768L34.8079 5.38324ZM20.1691 7.74194H7.50081C6.1188 7.74194 5.00049 8.89618 5.00049 10.3226C5.00049 11.749 6.1188 12.9032 7.50081 12.9032H20.1691C21.5511 12.9032 22.6694 11.749 22.6694 10.3226C22.6694 8.89618 21.5511 7.74194 20.1691 7.74194ZM20.2745 28.3871H7.54009C6.15088 28.3871 5.02673 29.5413 5.02673 30.9677C5.02673 32.3941 6.15088 33.5484 7.54009 33.5484H20.2745C21.6637 33.5484 22.7878 32.3941 22.7878 30.9677C22.7878 29.5413 21.6637 28.3871 20.2745 28.3871ZM2.51336 18.0645H15.2477C16.6369 18.0645 17.7611 19.2187 17.7611 20.6451C17.7611 22.0715 16.6369 23.2257 15.2477 23.2257H2.51336C1.12414 23.2257 0 22.0715 0 20.6451C0 19.2187 1.12414 18.0645 2.51336 18.0645ZM74.9733 30.9678H59.7256V20.6453C59.7256 16.1126 54.3254 13.726 51.1433 16.9976L31.0379 37.6412C29.9144 38.7947 29.4337 40.3574 29.5958 41.8611L4.6306 67.4947C2.667 69.5108 2.667 72.7769 4.6306 74.7931C6.59404 76.8091 9.77512 76.8092 11.7387 74.7931L35.9258 49.9584L42.564 56.7743L28.5245 71.1896C26.5609 73.2058 26.5609 76.4718 28.5245 78.488C30.488 80.504 33.669 80.5042 35.6326 78.488L53.2262 60.4235C55.1898 58.4073 55.1898 55.1412 53.2262 53.1251L41.7001 41.2904L49.6721 33.1049V36.1291C49.6721 38.9794 51.9229 41.2904 54.6988 41.2904H74.9733C77.7492 41.2904 80 38.9794 80 36.1291C80 33.2789 77.7492 30.9678 74.9733 30.9678Z" fill="url(#paint0_linear)"/>
<defs>
<linearGradient id="paint0_linear" x1="20.1351" y1="-1.80127" x2="84.3097" y2="115.932" gradientUnits="userSpaceOnUse">
<stop stop-color="#4BE0C5"/>
<stop offset="1" stop-color="#14C6FF"/>
</linearGradient>
</defs>
</svg>
