<svg width="43" height="41" viewBox="0 0 43 41" fill="none" xmlns="http://www.w3.org/2000/svg">
<path d="M19.6702 2.14762C20.3718 0.557325 22.6282 0.557327 23.3298 2.14762L27.7554 12.1789C28.0458 12.8371 28.6672 13.2886 29.3829 13.3614L40.2908 14.4705C42.0201 14.6463 42.7174 16.7924 41.4217 17.951L33.249 25.2599C32.7128 25.7394 32.4754 26.47 32.6273 27.1731L34.9432 37.8899C35.3103 39.5888 33.4848 40.9152 31.9825 40.041L22.5059 34.5268C21.8841 34.165 21.1159 34.165 20.4941 34.5268L11.0175 40.041C9.51518 40.9152 7.68966 39.5888 8.0568 37.8899L10.3727 27.1731C10.5246 26.47 10.2872 25.7394 9.75102 25.2599L1.57829 17.951C0.282637 16.7924 0.979922 14.6463 2.70918 14.4705L13.6171 13.3614C14.3328 13.2886 14.9542 12.8371 15.2446 12.1789L19.6702 2.14762Z" fill="#F2C94C"/>
</svg>
