<svg width="81" height="80" viewBox="0 0 81 80" fill="none" xmlns="http://www.w3.org/2000/svg">
<path fill-rule="evenodd" clip-rule="evenodd" d="M40.4993 19.9996C46.0221 19.9996 50.4992 15.5226 50.4992 9.99982C50.4992 4.47707 46.0221 0 40.4993 0C34.9766 0 30.4995 4.47707 30.4995 9.99982C30.4995 15.5226 34.9766 19.9996 40.4993 19.9996ZM59.9352 72.7658L47.6204 77.3842L53.7444 79.6808C56.38 80.6594 59.2238 79.3035 60.1822 76.7538C60.6924 75.3933 60.5414 73.9685 59.9352 72.7658ZM10.8184 58.2432C11.79 55.658 14.6757 54.3591 17.2562 55.3162L33.3807 61.3625L19.1396 66.7036L13.7454 64.681C11.1603 63.7094 9.84918 60.8286 10.8184 58.2432ZM70.1818 58.2433C69.2101 55.6579 66.3245 54.3591 63.744 55.3163L23.7449 70.316C21.1594 71.2877 19.8485 74.1683 20.8177 76.7538C21.776 79.3027 24.6191 80.6597 27.2555 79.6808L67.2546 64.6812C69.8402 63.7096 71.1512 60.8288 70.1818 58.2433ZM63.5904 39.9992H75.4993C78.2604 39.9992 80.4989 42.2379 80.4989 44.999C80.4989 47.7601 78.2602 49.9989 75.4991 49.9989H60.4995C58.6051 49.9989 56.8741 48.9296 56.027 47.2353L50.4998 36.1809V54.9423L40.4997 58.6929L30.5001 54.9434V36.1809L24.973 47.2353C24.1259 48.9295 22.395 49.9989 20.5005 49.9989H5.50081C2.73972 49.9989 0.500977 47.7601 0.500977 44.999C0.500977 42.2379 2.73972 39.9992 5.50081 39.9992H17.4097L26.0276 22.7633C26.9253 20.9739 28.7448 19.9542 30.6222 19.9997H40.5H50.3773C52.2549 19.9542 54.0768 20.9737 54.9724 22.7633L63.5904 39.9992Z" fill="url(#paint0_linear)"/>
<defs>
<linearGradient id="paint0_linear" x1="20.6355" y1="-1.80127" x2="84.8109" y2="115.931" gradientUnits="userSpaceOnUse">
<stop stop-color="#4BE0C5"/>
<stop offset="1" stop-color="#14C6FF"/>
</linearGradient>
</defs>
</svg>
