<svg width="80" height="80" fill="none" xmlns="http://www.w3.org/2000/svg"><path fill-rule="evenodd" clip-rule="evenodd" d="M16.957 23.595c-.166-.298-.33-.596-.512-.859-2.044-2.955-1.405-7.048 1.453-9.32l2.527-1.688c-.751-2.543 0-5.601 2.106-7.579 2.2-2.072 5.636-2.558 8.368-.95l2.045-1.627A7.156 7.156 0 0138.436.07a7.293 7.293 0 014.924 2.944c1.41 1.954 2.726 4.073 3.993 6.26l-11.78 5.913 1.12 2.097c.604 1.14.001 2.448-1.124 2.905-1.386.558-2.697.03-3.157-.815l-1.1-2.047-13.97 6.934a14.213 14.213 0 01-.385-.666zm47.845 2.751c-1.82-6.585-4.82-13.842-8.447-20.434l-4.203 2.225c3.457 6.288 6.312 13.19 8.04 19.438 2.469 8.9 2.96 15.619 3.038 23.36v12.501h4.777V50.935c-.08-7.932-.598-15.188-3.205-24.589zM11 32.407c2.442 4.704 3.982 9.88 4.297 14.975v16.054h4.777V47.169c-.345-5.757-2.069-11.596-4.82-16.89L11 32.406zm28.343 29.5v-2.378h-14.65v-8.86l10.368-.558c1.126 2.35 3.71 4.038 6.638 4.077h.098c3.09 0 5.805-1.942 6.688-4.819l9.931-.548.015 10.708h-14.31v2.377c0 1.158-1.071 2.101-2.39 2.101-1.317 0-2.388-.943-2.388-2.1zm2.318-44.509c.384 2.998-1.366 5.948-4.27 7.124-2.746 1.112-5.718.61-7.715-1.108l-9.993 4.938a51.034 51.034 0 012.398 5.713l14.423-3.793.63 2.25c.284 1.019 1.593 1.648 2.923 1.415 1.232-.222 2.035-1.397 1.693-2.626l-.63-2.266 13.391-3.56c-1.355-4.24-2.997-8.292-4.902-12.077l-7.948 3.99zm14.183 12.589l-9.255 2.461c-.249 2.972-2.533 5.535-5.667 6.098-2.869.525-5.72-.583-7.315-2.648l-10.262 2.686c.606 2.433 1.05 4.9 1.265 7.4l14.518-.795.108 2.372c.04.901 1.09 1.92 2.528 1.938 1.446-.03 2.294-1.046 2.237-2.257l-.107-2.314 14.263-.787c-.363-4.844-1.133-9.593-2.313-14.154zM41.732 80c-3.082 0-5.715-1.94-6.725-4.532h-10.28l-.035-11.25h10.315c1.01 2.59 3.643 4.477 6.725 4.477 3.081 0 5.715-1.887 6.725-4.478h9.995v11.251h-9.995C47.447 78.06 44.813 80 41.732 80z" fill="url(#paint0_linear)"/><defs><linearGradient id="paint0_linear" x1="25.348" y1="-1.801" x2="99.043" y2="94.54" gradientUnits="userSpaceOnUse"><stop stop-color="#4BE0C5"/><stop offset="1" stop-color="#14C6FF"/></linearGradient></defs></svg>