<svg width="80" height="80" fill="none" xmlns="http://www.w3.org/2000/svg"><path d="M37.774 49.768l-3.76 9.523-.723 7.998c4.734 1.497 8.939-2.364 9.557-7.535.532-4.433-1.669-8.57-5.074-9.986z" fill="url(#paint0_linear)"/><path d="M79.745 3.444C78.935.742 76.45-.66 74.198.304l-19.29 8.301c-12.865 0-6.505.258-31.252-1.351l-18.51-4.21C2.776 2.518.521 4.363.075 7.188c-.445 2.82 1.1 5.543 3.454 6.078l18.795 4.274c.189.044.38.07.572.085l17.008 1.107c-1.141.498-6.515.854-7.856.979-1.939 14.985-1.223 9.444-3.116 24.094l-4.535 11.48a5.04 5.04 0 00-.326 1.389l-1.676 18.524C22.164 77.743 23.82 80 25.993 80c1.821 0 3.389-1.646 3.59-3.868l1.609-17.795L35.71 46.9c3.603.62 2.55.437 5.224.902 3.68 2.823 5.347 7.7 4.776 12.448a14.267 14.267 0 01-1.297 4.463l2.85 12.127c.548 2.337 2.57 3.64 4.46 2.997 1.92-.65 3.04-3.045 2.498-5.347l-8.474-36.05 2.328-19.432h7.587c.5 0 .996-.104 1.464-.304l20-8.606c2.254-.971 3.426-3.948 2.619-6.654z" fill="url(#paint1_linear)"/><defs><linearGradient id="paint0_linear" x1="35.716" y1="49.366" x2="52.75" y2="66.238" gradientUnits="userSpaceOnUse"><stop stop-color="#4BE0C5"/><stop offset="1" stop-color="#14C6FF"/></linearGradient><linearGradient id="paint1_linear" x1="20.135" y1="-1.801" x2="84.31" y2="115.932" gradientUnits="userSpaceOnUse"><stop stop-color="#4BE0C5"/><stop offset="1" stop-color="#14C6FF"/></linearGradient></defs></svg>