<svg width="80" height="80" fill="none" xmlns="http://www.w3.org/2000/svg"><path d="M73.944 8.254a5.479 5.479 0 00-7.749 0L64.68 9.77l-1.516-1.516a5.479 5.479 0 10-7.748 7.748l1.516 1.516 7.748 7.748 9.265-9.264a5.48 5.48 0 000-7.748z" fill="url(#paint0_linear)"/><path d="M77.296 41.223S62.668 29.255 50.7 45.213c0 0-10.638-9.31-22.607 0l-1.329-22.607s-.588-.808-1.5-1.986l.728.075s4.711 0 5.496-1.76l2.614 2.41a2.497 2.497 0 003.47-.25l6.466-7.248a2.498 2.498 0 00.154-3.134L36.984 1.33l-21.2 9.682s-.786.347-.989.956C13.465 15.957 2.828 54.521 2.828 57.18v3.087c0 .575.256 1.113.709 1.467.577.452 3.446 1.243 4.61 2.095 5.019 3.67 12.829 10.091 21.276 11.968 11.968 2.66 26.595-1.33 26.595-1.33s9.308 5.32 21.277 3.99V41.223" fill="url(#paint1_linear)"/><defs><linearGradient id="paint0_linear" x1="59.281" y1="6.23" x2="72.903" y2="35.41" gradientUnits="userSpaceOnUse"><stop stop-color="#4BE0C5"/><stop offset="1" stop-color="#14C6FF"/></linearGradient><linearGradient id="paint1_linear" x1="21.57" y1="-.411" x2="84.864" y2="111.394" gradientUnits="userSpaceOnUse"><stop stop-color="#4BE0C5"/><stop offset="1" stop-color="#14C6FF"/></linearGradient></defs></svg>