<svg width="80" height="80" fill="none" xmlns="http://www.w3.org/2000/svg"><path fill-rule="evenodd" clip-rule="evenodd" d="M57.874 48.37c-.13.135-.26.27-.394.403l-4.436 4.436v17.13h2.51a2.388 2.388 0 011.213.33c.558.326.977.874 1.128 1.54l1.103 4.86A2.4 2.4 0 0156.658 80H17.4a2.4 2.4 0 01-2.34-2.93l1.103-4.862a2.4 2.4 0 012.34-1.869h2.119-.001v-4.867a2.345 2.345 0 012.344-2.345h16.492V51.64a6.795 6.795 0 014.13-6.25l4.152-4.153a14.281 14.281 0 004.183-10.099v-10.25l-5.807 5.807-9.145 9.143a3.263 3.263 0 01-4.618 0l-1.602-1.602-2.127 2.127 6.143 6.142a1.207 1.207 0 11-1.707 1.708l-6.143-6.143-1.045 1.045 3.695 3.695a1.207 1.207 0 01-1.707 1.707l-3.695-3.695-3.333 3.333a1.2 1.2 0 01-.268.203 2.188 2.188 0 11-1.642-1.642c.054-.096.121-.187.203-.268l3.332-3.333-3.694-3.695a1.207 1.207 0 111.707-1.707l3.695 3.695 1.045-1.045-6.143-6.143a1.207 1.207 0 111.708-1.707l6.142 6.143 2.127-2.127-1.602-1.602a3.263 3.263 0 010-4.618l9.143-9.145L48.95 4.8l2.825-2.825A6.718 6.718 0 0156.541 0c1.724 0 3.45.658 4.765 1.974A6.715 6.715 0 0163.28 6.74a6.72 6.72 0 01-1.34 4.035 6.096 6.096 0 012.199 4.694v17.23c0 5.841-2.248 11.45-6.265 15.671zM39.458 70.34h.001-.001z" fill="url(#paint0_linear)"/><defs><linearGradient id="paint0_linear" x1="27.368" y1="-1.801" x2="103.183" y2="83.633" gradientUnits="userSpaceOnUse"><stop stop-color="#4BE0C5"/><stop offset="1" stop-color="#14C6FF"/></linearGradient></defs></svg>