<svg width="80" height="80" fill="none" xmlns="http://www.w3.org/2000/svg"><path d="M56.552 50.908l2.713 2.206a2.758 2.758 0 011.006 2.401l-.513 5.397a5.518 5.518 0 004.971 6.014l1.172-12.335a5.517 5.517 0 00-3.483-5.66l-5.476-2.142-.39 4.119z" fill="url(#paint0_linear)"/><path d="M54.443 45.478c2.53 2.771 5.656 5.241 5.656 5.241 1.745 1.936 1.215 5.143-.72 6.887a4.718 4.718 0 01-6.667-.346l-.754-.93-2.506-.671.25-1.467-1.74-2.472a1.379 1.379 0 01.163-1.782l2.065-2.015-2.097-6.855 4.47-2.182 1.88 6.592z" fill="url(#paint1_linear)"/><path d="M55.418 48.912l1.931.286a1.656 1.656 0 01.34 3.256l-.392.103.54 5.978c2.17-.625 5.264-2.546 5.187-6.452-.108-5.498-8.581-6.605-8.581-6.605l.975 3.434z" fill="url(#paint2_linear)"/><path d="M79.987 65.609a1.552 1.552 0 01-1.556 1.316h-7.553a1.38 1.38 0 01-.928-.358L55.172 53.132l-6.896-9.655-4.138.69-.51.084a4.981 4.981 0 01-5.272-7.14l.265-.53-1.21-1.816-1.549-2.322-1.38-6.897-.044-.022-2.714-1.357-19.503 29.255-5.324 7.986 4.574 2.288a1.705 1.705 0 01.925 1.775 1.742 1.742 0 01-1.74 1.454H0v-3.814c0-.213.05-.423.144-.613l5.263-10.6 4.248-8.554 5.517-8.276 6.668-14.337a16.279 16.279 0 014.59-5.845 8.604 8.604 0 0112.26 1.557l2.69 3.586 4.137 6.896.805.94 3.555 4.147 3.916 4.569 8.276 13.793 11.034 12.413 5.678 1.135a1.519 1.519 0 011.206 1.687z" fill="url(#paint3_linear)"/><path d="M48.084 40.608a1.379 1.379 0 00-2.33 1.473l.595.943a1.379 1.379 0 002.331-1.473l-.596-.943z" fill="url(#paint4_linear)"/><path d="M44.138 44.167l-.51.084a4.981 4.981 0 01-5.272-7.14l.265-.53-1.21-1.816 8.796-6.805.115-.095 3.555 4.147c-7.103 4.996-5.74 12.155-5.74 12.155z" fill="url(#paint5_linear)"/><path d="M41.38 20.029l-6.897 5.384-.045.11-2.714-1.356-19.503 29.255-.325-.078-6.49-1.446 4.25-8.554 5.516-8.276 6.668-14.337a16.279 16.279 0 014.59-5.845 8.604 8.604 0 0112.26 1.557l2.69 3.586z" fill="url(#paint6_linear)"/><path d="M31.724 24.12a1.379 1.379 0 01-.617-1.85l.762-1.611a1.38 1.38 0 012.468 1.233l-.762 1.611a1.379 1.379 0 01-1.85.617z" fill="url(#paint7_linear)"/><defs><linearGradient id="paint0_linear" x1="81.801" y1="26.572" x2="-10.534" y2="101.239" gradientUnits="userSpaceOnUse"><stop stop-color="#4BE0C5"/><stop offset="1" stop-color="#14C6FF"/></linearGradient><linearGradient id="paint1_linear" x1="81.801" y1="26.572" x2="-10.534" y2="101.239" gradientUnits="userSpaceOnUse"><stop stop-color="#4BE0C5"/><stop offset="1" stop-color="#14C6FF"/></linearGradient><linearGradient id="paint2_linear" x1="81.801" y1="26.572" x2="-10.534" y2="101.239" gradientUnits="userSpaceOnUse"><stop stop-color="#4BE0C5"/><stop offset="1" stop-color="#14C6FF"/></linearGradient><linearGradient id="paint3_linear" x1="81.801" y1="26.572" x2="-10.534" y2="101.239" gradientUnits="userSpaceOnUse"><stop stop-color="#4BE0C5"/><stop offset="1" stop-color="#14C6FF"/></linearGradient><linearGradient id="paint4_linear" x1="81.801" y1="26.572" x2="-10.534" y2="101.239" gradientUnits="userSpaceOnUse"><stop stop-color="#4BE0C5"/><stop offset="1" stop-color="#14C6FF"/></linearGradient><linearGradient id="paint5_linear" x1="81.801" y1="26.572" x2="-10.534" y2="101.239" gradientUnits="userSpaceOnUse"><stop stop-color="#4BE0C5"/><stop offset="1" stop-color="#14C6FF"/></linearGradient><linearGradient id="paint6_linear" x1="81.801" y1="26.572" x2="-10.534" y2="101.239" gradientUnits="userSpaceOnUse"><stop stop-color="#4BE0C5"/><stop offset="1" stop-color="#14C6FF"/></linearGradient><linearGradient id="paint7_linear" x1="81.801" y1="26.572" x2="-10.534" y2="101.239" gradientUnits="userSpaceOnUse"><stop stop-color="#4BE0C5"/><stop offset="1" stop-color="#14C6FF"/></linearGradient></defs></svg>