<svg width="81" height="81" fill="none" xmlns="http://www.w3.org/2000/svg"><path fill-rule="evenodd" clip-rule="evenodd" d="M10.031.764H33.47a4.687 4.687 0 110 9.375H10.03a4.687 4.687 0 110-9.375zm37.5 0H70.97a4.687 4.687 0 110 9.375H47.53a4.687 4.687 0 110-9.375zm18.75 21.875H52.22v-7.813h-4.69v23.112a19.288 19.288 0 009.375 16.552v21.586h-2.343a2.344 2.344 0 100 4.688h9.374a2.344 2.344 0 000-4.688h-2.343V54.491a19.288 19.288 0 009.375-16.552V14.825H66.28v7.813zm0 4.687v6.25H52.22v-6.25h14.06zM59.25 50.434a14.52 14.52 0 01-7.026-12.17h14.052a14.52 14.52 0 01-7.026 12.17zM14.719 22.639H28.78v-7.813h4.688v23.112a19.288 19.288 0 01-9.375 16.552v21.586h2.343a2.344 2.344 0 110 4.688h-9.375a2.344 2.344 0 010-4.688h2.344V54.491a19.288 19.288 0 01-9.375-16.552V14.825h4.688v7.813zM28.78 33.576v-6.25H14.72v6.25h14.06zm-14.057 4.688a14.52 14.52 0 007.026 12.17 14.52 14.52 0 007.026-12.17H14.724z" fill="url(#paint0_linear)"/><defs><linearGradient id="paint0_linear" x1="40.5" y1=".764" x2="83.059" y2="121.985" gradientUnits="userSpaceOnUse"><stop stop-color="#4BE0C5"/><stop offset="1" stop-color="#14C6FF"/></linearGradient></defs></svg>