<svg width="80" height="80" fill="none" xmlns="http://www.w3.org/2000/svg"><path fill-rule="evenodd" clip-rule="evenodd" d="M35.532 3.57c-4.638.366-9.084.716-12.675.716-.923 0-1.772-.005-2.568-.01C14.024 4.24 10.976 4.222 0 6.757V0h44.286c9.371 0 12.857 1.757 12.857 2.857.013.1.013.2 0 .3-5.712-.837-13.924-.191-21.611.414zm.781 2.833c6.28-.5 12.745-1.016 17.773-.689-4.135 2.024-10.61 3.492-15.303 4.556-2.166.491-3.953.896-4.954 1.23a93.063 93.063 0 00-10.186 4.371 1.429 1.429 0 000 2.543 6.844 6.844 0 012.486 2.615c-.446.937-.444 1.444-.425 5.351.005.975.01 2.162.01 3.62H21.43a4.286 4.286 0 100 8.571h4.285v7.143c.019.998.365 1.962.986 2.743A11.857 11.857 0 0120 50C13.557 50 6.086 63.643 0 76.686v-57.7a2.857 2.857 0 011.971-2.7 194.278 194.278 0 0021.243-9.143c3.813 0 8.405-.366 13.1-.74zm-19.542 9.983A107.93 107.93 0 0123.5 12.7v-.029a1.429 1.429 0 10-1.286-2.542 113.722 113.722 0 00-6.9 3.771 3.371 3.371 0 00.186 5.9c2.857 1.486 4.5 3.1 4.5 4.457 0 .072 0 .114-.114.214-1.4 1.143-7.557.8-12.457-.185a1.457 1.457 0 00-.572 2.857c5.186 1.014 16 2.386 16-2.857 0-2.572-2.028-4.915-6.086-6.986a.529.529 0 010-.914zM28.686 22.3a1.428 1.428 0 012.742.557v22.857a1.428 1.428 0 01-2.4 1.043 1.528 1.528 0 01-.457-1.043c0-22.85 0-23.117.091-23.348l.003-.008a.424.424 0 00.02-.058zM20 34.286c0 .789.64 1.428 1.429 1.428h4.285v-2.857H21.43c-.79 0-1.429.64-1.429 1.429zM58.571 18.57C51.2 15.9 43.53 16.83 38.486 23.1 29.829 33.814 36.7 45.471 40 50h.114l18.457-31.429zm15.715 7.143C79.257 25.713 80 33.77 80 38.57c0 4.867-.707 9.839-1.417 14.838-.718 5.054-1.44 10.135-1.44 15.162A73.836 73.836 0 0078.286 80h-4.129c-.647-6.761-1.145-11.891-1.524-15.79v-.004c-1.144-11.782-1.196-12.32-.961-12.66.01-.016.023-.032.035-.048.016-.021.033-.044.05-.07l1.572-2.414a4.286 4.286 0 00.571-3.5 2153.657 2153.657 0 01-2.794-10.153c-.74-2.715-.823-3.015-.964-3.283l-.057-.103-.042-.075a4.057 4.057 0 00-1.243-1.429c2.014-3 4.057-4.757 5.486-4.757zm-17.543 1.6l-8.029 13.672c.62.618 1.187 1.177 1.708 1.692 2.937 2.9 4.435 4.38 5.964 6.88l5.2-19.287a69.51 69.51 0 01-4.843-2.957zM70.209 48.52c-1.031 1.52-1.455 2.144-1.538 3.324-.007.04-.015.066-.021.091-.079.312.023.67 2.636 28.066h-4.529c-8.063-25.35-8.152-25.69-8.3-26.002-.031-.067-.066-.134-.186-.455L64.186 31.6c.79.364 1.6.679 2.428.943.512.118.918.507 1.057 1.014l3.472 12.7a1.43 1.43 0 01-.2 1.172c-.273.412-.517.77-.734 1.09z" fill="url(#paint0_linear)"/><defs><linearGradient id="paint0_linear" x1="20.135" y1="-1.801" x2="84.31" y2="115.932" gradientUnits="userSpaceOnUse"><stop stop-color="#4BE0C5"/><stop offset="1" stop-color="#14C6FF"/></linearGradient></defs></svg>