<svg width="80" height="80" fill="none" xmlns="http://www.w3.org/2000/svg"><path fill-rule="evenodd" clip-rule="evenodd" d="M69.779 7.742c0 4.276-3.376 7.742-7.54 7.742s-7.54-3.466-7.54-7.742S58.075 0 62.239 0s7.54 3.466 7.54 7.742zM34.808 5.383a4.93 4.93 0 016.342-.645l9.288 6.602c-1.06.511-2.028 1.166-2.85 2.01l-4.91 5.041-3.675-2.718-10.91 11.202a4.933 4.933 0 01-7.109 0c-1.963-2.016-1.963-5.282 0-7.298L34.808 5.383zM20.169 7.742H7.501c-1.382 0-2.5 1.154-2.5 2.58 0 1.427 1.118 2.581 2.5 2.581h12.668c1.382 0 2.5-1.154 2.5-2.58 0-1.427-1.118-2.581-2.5-2.581zm.105 20.645H7.54c-1.39 0-2.513 1.154-2.513 2.58 0 1.427 1.124 2.581 2.513 2.581h12.735c1.389 0 2.513-1.154 2.513-2.58 0-1.427-1.124-2.58-2.514-2.58zM2.514 18.064h12.734c1.389 0 2.513 1.155 2.513 2.581 0 1.427-1.124 2.58-2.513 2.58H2.513C1.124 23.226 0 22.072 0 20.646c0-1.426 1.124-2.58 2.513-2.58zm72.46 12.904H59.725V20.645c0-4.532-5.4-6.919-8.583-3.647L31.038 37.64a5.234 5.234 0 00-1.442 4.22L4.63 67.495c-1.964 2.016-1.964 5.282 0 7.298a4.933 4.933 0 007.108 0l24.187-24.835 6.638 6.816-14.04 14.416c-1.963 2.016-1.963 5.282 0 7.298a4.933 4.933 0 007.109 0l17.593-18.065c1.964-2.016 1.964-5.282 0-7.298L41.7 41.29l7.972-8.185v3.024c0 2.85 2.25 5.161 5.027 5.161h20.274c2.776 0 5.027-2.31 5.027-5.16 0-2.851-2.25-5.162-5.027-5.162z" fill="url(#paint0_linear)"/><defs><linearGradient id="paint0_linear" x1="20.135" y1="-1.801" x2="84.31" y2="115.932" gradientUnits="userSpaceOnUse"><stop stop-color="#4BE0C5"/><stop offset="1" stop-color="#14C6FF"/></linearGradient></defs></svg>