<svg width="81" height="80" fill="none" xmlns="http://www.w3.org/2000/svg"><path fill-rule="evenodd" clip-rule="evenodd" d="M40.5 20c5.522 0 10-4.477 10-10s-4.478-10-10-10c-5.523 0-10 4.477-10 10s4.477 10 10 10zm19.435 52.766L47.62 77.384l6.124 2.297a5 5 0 006.438-2.927c.51-1.36.36-2.785-.247-3.988zM10.818 58.243c.972-2.585 3.858-3.884 6.438-2.927l16.125 6.046-14.241 5.342-5.395-2.023a5.003 5.003 0 01-2.927-6.438zm59.364 0c-.972-2.585-3.858-3.884-6.438-2.927l-40 15a5 5 0 103.51 9.365l40-15a5.002 5.002 0 002.928-6.438zM63.59 40H75.5a5 5 0 010 10h-15a5 5 0 01-4.473-2.764L50.5 36.181v18.761l-10 3.75-10-3.749V36.181l-5.527 11.054A5 5 0 0120.5 50h-15a5 5 0 010-10h11.91l8.618-17.236A5.002 5.002 0 0130.622 20h19.755a5 5 0 014.595 2.763L63.59 40z" fill="url(#paint0_linear)"/><defs><linearGradient id="paint0_linear" x1="20.636" y1="-1.801" x2="84.811" y2="115.931" gradientUnits="userSpaceOnUse"><stop stop-color="#4BE0C5"/><stop offset="1" stop-color="#14C6FF"/></linearGradient></defs></svg>